<?xml version="1.0" standalone="no"?>
<!DOCTYPE svg PUBLIC "-//W3C//DTD SVG 20010904//EN"
 "http://www.w3.org/TR/2001/REC-SVG-20010904/DTD/svg10.dtd">
<svg version="1.0" xmlns="http://www.w3.org/2000/svg"
 width="114.000000pt" height="114.000000pt" viewBox="0 0 114.000000 114.000000"
 preserveAspectRatio="xMidYMid meet">

<g transform="translate(0.000000,114.000000) scale(0.100000,-0.100000)"
fill="#000000" stroke="none">
<path d="M450 1113 c0 -15 10 -38 23 -52 19 -22 19 -23 1 -8 -26 21 -63 22
-71 1 -7 -19 11 -41 21 -25 11 17 49 14 43 -3 -3 -8 -1 -17 6 -20 7 -2 2 -8
-10 -11 -34 -11 -28 -29 7 -21 17 3 30 1 30 -4 0 -6 4 -10 9 -10 10 0 7 18
-21 113 -20 69 -38 88 -38 40z"/>
<path d="M180 1009 c0 -40 16 -69 39 -69 10 0 29 -9 42 -20 l24 -20 -31 17
c-26 14 -36 15 -58 5 -31 -14 -43 -39 -29 -60 15 -24 33 -26 33 -3 0 11 8 24
18 29 20 11 45 5 36 -9 -3 -5 2 -9 10 -9 22 0 20 -17 -4 -32 -24 -15 -25 -24
-4 -32 22 -8 44 11 44 38 1 19 2 19 11 4 13 -24 49 -23 49 0 0 10 -6 24 -12
31 -11 11 -10 13 2 9 20 -7 50 9 50 27 0 23 -19 27 -38 9 -16 -16 -17 -16 -20
-1 -2 9 -10 17 -18 17 -8 0 -14 6 -14 14 0 20 27 39 45 32 11 -4 15 1 15 18 0
45 -56 41 -81 -6 l-12 -22 -8 22 c-5 12 -20 27 -34 32 -44 17 -55 13 -55 -21z
m120 -82 c0 -5 -4 -5 -10 -2 -5 3 -10 14 -10 23 0 15 2 15 10 2 5 -8 10 -19
10 -23z"/>
<path d="M416 928 c6 -49 -17 -95 -60 -123 -34 -23 -102 -31 -121 -15 -21 18
-31 5 -11 -15 20 -20 20 -28 1 -65 -9 -17 -11 -30 -6 -30 6 0 8 -7 5 -15 -10
-26 6 -17 80 48 39 34 113 96 163 137 53 43 85 76 77 78 -8 2 -14 8 -14 12 0
6 -11 5 -26 0 -31 -12 -74 -3 -74 16 0 8 -4 14 -10 14 -6 0 -7 -18 -4 -42z"/>
<path d="M504 864 l-29 -24 43 18 c51 23 57 27 33 29 -10 1 -31 -9 -47 -23z"/>
<path d="M580 865 c-64 -18 -128 -54 -180 -101 -20 -18 -39 -32 -42 -29 -2 2
-25 -13 -51 -35 -26 -21 -43 -41 -38 -45 6 -3 7 -13 4 -22 -12 -31 17 -3 36
36 21 39 51 71 51 53 0 -6 -5 -14 -10 -17 -23 -14 -68 -124 -79 -190 -22 -144
20 -277 118 -376 117 -116 282 -158 440 -110 129 39 246 153 285 276 21 69 21
215 -1 281 -38 114 -141 223 -253 265 -73 28 -206 34 -280 14z m273 -78 c31
-14 57 -27 57 -29 0 -2 -30 -3 -68 -4 -37 0 -94 -8 -128 -17 -70 -18 -274
-105 -274 -117 0 -23 58 -15 127 17 134 62 252 55 304 -18 32 -46 45 -127 32
-205 -6 -36 -13 -68 -16 -70 -2 -2 -28 9 -58 26 -77 42 -103 40 -167 -16 -29
-26 -50 -50 -45 -54 4 -3 36 -15 71 -25 34 -10 62 -21 62 -25 0 -10 -52 -20
-100 -20 -82 0 -146 38 -197 117 l-34 54 26 34 c37 49 95 95 162 130 41 21 59
37 61 53 3 20 1 21 -25 11 -78 -29 -161 -78 -203 -119 -47 -46 -90 -115 -90
-145 0 -8 -4 -15 -9 -15 -16 0 -24 105 -12 162 30 139 129 250 264 294 67 22
190 13 260 -19z m221 -299 c4 -29 2 -77 -3 -106 -12 -61 -55 -154 -84 -179
-19 -18 -20 -17 -8 6 12 21 9 27 -20 57 -24 25 -31 38 -24 48 51 67 95 145
106 186 7 27 16 47 20 45 3 -3 10 -28 13 -57z m-196 -303 c28 -16 52 -33 52
-37 0 -4 -30 -22 -67 -40 -62 -30 -75 -33 -163 -33 -79 0 -104 4 -150 25 l-54
24 76 12 c84 13 154 35 208 64 19 11 37 18 40 17 3 -1 29 -15 58 -32z"/>
<path d="M123 823 c-7 -2 -13 -18 -13 -35 0 -30 -1 -30 -18 -15 -19 17 -53 23
-65 11 -3 -4 30 -24 74 -45 83 -40 113 -49 91 -27 -9 9 -7 14 5 24 15 10 15
14 3 29 -13 15 -15 15 -23 -7 -6 -14 -11 -18 -14 -10 -3 6 -11 12 -19 12 -19
0 -18 27 2 38 9 5 14 14 10 21 -8 12 -13 12 -33 4z"/>
</g>
</svg>
